<svg width="42" height="39" viewBox="0 0 42 39" fill="none" xmlns="http://www.w3.org/2000/svg">
<path d="M16.7454 17.1678L16.7328 17.1756L16.7454 17.1834V20.8065L16.7328 20.8143L13.7802 22.6317H13.776L0 31.1103L11.4072 21.6138L14.2212 19.2699H14.2254V19.266L14.721 15.5025L16.7454 0.163795V17.1678Z" fill="#AC90D9"/>
<path d="M33.4656 31.1103L19.7064 22.6434V22.6239L19.6896 22.6317L16.7454 20.8221V0.163795L18.7656 15.4869L19.2612 19.2582L19.2444 19.2699L19.2654 19.2855L22.0584 21.6099L33.4656 31.1103Z" fill="#AC90D9"/>
<path d="M33.4656 31.1103L20.0634 25.3383L16.7454 23.907V23.8992L16.7328 23.9031L13.4232 25.3305L0 31.1103L13.776 22.6317H13.7802L16.7328 20.8143L16.7454 20.8221L19.6896 22.6317L19.7064 22.6434L33.4656 31.1103Z" fill="#AC90D9"/>
</svg>
