<svg width="14" height="17" viewBox="0 0 14 17" fill="none" xmlns="http://www.w3.org/2000/svg">
<path d="M13.9454 16V7.2136C13.9454 5.16062 13.4086 3.55967 12.335 2.41075C11.2614 1.26183 9.54744 0.68737 7.1931 0.68737C5.91234 0.68737 4.81993 0.800378 3.91586 1.0264C3.0118 1.25241 2.1454 1.54435 1.31667 1.90221L2.39025 5.17945C3.08713 4.91577 3.74635 4.718 4.3679 4.58616C5.00828 4.43548 5.74283 4.36014 6.57156 4.36014C7.64514 4.36014 8.45503 4.59558 9.00124 5.06644C9.54744 5.53731 9.82055 6.22478 9.82055 7.12885V7.38311C9.27434 7.19477 8.7093 7.04409 8.12542 6.93108C7.56038 6.81807 6.89175 6.76157 6.11952 6.76157C5.21546 6.76157 4.38673 6.86516 3.63334 7.07234C2.89879 7.26069 2.25841 7.55263 1.7122 7.94816C1.18483 8.34369 0.770464 8.84281 0.469108 9.44552C0.167753 10.0482 0.017075 10.7639 0.017075 11.5927V11.6492C0.017075 12.4026 0.148918 13.0712 0.412604 13.6551C0.695125 14.2201 1.07182 14.7004 1.54269 15.0959C2.01356 15.4915 2.55976 15.7928 3.18131 16C3.82169 16.1883 4.49974 16.2825 5.21546 16.2825C6.2702 16.2825 7.16485 16.113 7.89941 15.774C8.63396 15.4161 9.26492 14.9453 9.7923 14.3614V16H13.9454ZM9.87705 10.6604C9.87705 11.4514 9.56628 12.0918 8.94473 12.5815C8.34202 13.0712 7.53213 13.3161 6.51505 13.3161C5.81817 13.3161 5.25313 13.156 4.81993 12.8358C4.38673 12.5156 4.17013 12.0635 4.17013 11.4797V11.4232C4.17013 10.7451 4.43382 10.2272 4.96119 9.8693C5.48856 9.51144 6.2137 9.33251 7.1366 9.33251C7.66397 9.33251 8.15368 9.38901 8.60571 9.50202C9.07658 9.59619 9.50036 9.72804 9.87705 9.89755V10.6604Z" fill="#FAEAFF"/>
</svg>
