<svg width="94" height="17" viewBox="0 0 94 17" fill="none" xmlns="http://www.w3.org/2000/svg">
<path d="M13.9454 16V7.2136C13.9454 5.16062 13.4086 3.55967 12.335 2.41075C11.2614 1.26183 9.54744 0.68737 7.1931 0.68737C5.91234 0.68737 4.81993 0.800378 3.91586 1.0264C3.0118 1.25241 2.1454 1.54435 1.31667 1.90221L2.39025 5.17945C3.08713 4.91577 3.74635 4.718 4.3679 4.58616C5.00828 4.43548 5.74283 4.36014 6.57156 4.36014C7.64514 4.36014 8.45503 4.59558 9.00124 5.06644C9.54744 5.53731 9.82055 6.22478 9.82055 7.12885V7.38311C9.27434 7.19477 8.7093 7.04409 8.12542 6.93108C7.56038 6.81807 6.89175 6.76157 6.11952 6.76157C5.21546 6.76157 4.38673 6.86516 3.63334 7.07234C2.89879 7.26069 2.25841 7.55263 1.7122 7.94816C1.18483 8.34369 0.770464 8.84281 0.469108 9.44552C0.167753 10.0482 0.017075 10.7639 0.017075 11.5927V11.6492C0.017075 12.4026 0.148918 13.0712 0.412604 13.6551C0.695125 14.2201 1.07182 14.7004 1.54269 15.0959C2.01356 15.4915 2.55976 15.7928 3.18131 16C3.82169 16.1883 4.49974 16.2825 5.21546 16.2825C6.2702 16.2825 7.16485 16.113 7.89941 15.774C8.63396 15.4161 9.26492 14.9453 9.7923 14.3614V16H13.9454ZM9.87705 10.6604C9.87705 11.4514 9.56628 12.0918 8.94473 12.5815C8.34202 13.0712 7.53213 13.3161 6.51505 13.3161C5.81817 13.3161 5.25313 13.156 4.81993 12.8358C4.38673 12.5156 4.17013 12.0635 4.17013 11.4797V11.4232C4.17013 10.7451 4.43382 10.2272 4.96119 9.8693C5.48856 9.51144 6.2137 9.33251 7.1366 9.33251C7.66397 9.33251 8.15368 9.38901 8.60571 9.50202C9.07658 9.59619 9.50036 9.72804 9.87705 9.89755V10.6604ZM30.0998 16V6.19653C30.0998 4.4449 29.6478 3.06996 28.7437 2.07172C27.8585 1.07348 26.5965 0.574363 24.9579 0.574363C24.4117 0.574363 23.922 0.640284 23.4888 0.772126C23.0556 0.90397 22.6601 1.0829 22.3022 1.30892C21.9444 1.53493 21.6148 1.79862 21.3134 2.09997C21.0309 2.3825 20.7672 2.68385 20.5223 3.00404V0.856883H16.228V16H20.5223V7.55263C20.5223 6.53555 20.7578 5.77275 21.2286 5.26421C21.7184 4.73684 22.3776 4.47315 23.2063 4.47315C24.035 4.47315 24.6754 4.73684 25.1274 5.26421C25.5795 5.77275 25.8055 6.53555 25.8055 7.55263V16H30.0998ZM46.8829 0.856883H42.419L39.0005 10.9994L35.6103 0.856883H31.0617L37.0229 16.113H40.9217L46.8829 0.856883ZM60.9696 16V7.2136C60.9696 5.16062 60.4328 3.55967 59.3592 2.41075C58.2857 1.26183 56.5717 0.68737 54.2174 0.68737C52.9366 0.68737 51.8442 0.800378 50.9401 1.0264C50.0361 1.25241 49.1697 1.54435 48.3409 1.90221L49.4145 5.17945C50.1114 4.91577 50.7706 4.718 51.3922 4.58616C52.0325 4.43548 52.7671 4.36014 53.5958 4.36014C54.6694 4.36014 55.4793 4.59558 56.0255 5.06644C56.5717 5.53731 56.8448 6.22478 56.8448 7.12885V7.38311C56.2986 7.19477 55.7336 7.04409 55.1497 6.93108C54.5846 6.81807 53.916 6.76157 53.1438 6.76157C52.2397 6.76157 51.411 6.86516 50.6576 7.07234C49.9231 7.26069 49.2827 7.55263 48.7365 7.94816C48.2091 8.34369 47.7947 8.84281 47.4934 9.44552C47.192 10.0482 47.0413 10.7639 47.0413 11.5927V11.6492C47.0413 12.4026 47.1732 13.0712 47.4369 13.6551C47.7194 14.2201 48.0961 14.7004 48.567 15.0959C49.0378 15.4915 49.584 15.7928 50.2056 16C50.846 16.1883 51.524 16.2825 52.2397 16.2825C53.2945 16.2825 54.1891 16.113 54.9237 15.774C55.6582 15.4161 56.2892 14.9453 56.8166 14.3614V16H60.9696ZM56.9013 10.6604C56.9013 11.4514 56.5905 12.0918 55.969 12.5815C55.3663 13.0712 54.5564 13.3161 53.5393 13.3161C52.8424 13.3161 52.2774 13.156 51.8442 12.8358C51.411 12.5156 51.1944 12.0635 51.1944 11.4797V11.4232C51.1944 10.7451 51.4581 10.2272 51.9855 9.8693C52.5128 9.51144 53.238 9.33251 54.1609 9.33251C54.6882 9.33251 55.1779 9.38901 55.63 9.50202C56.1008 9.59619 56.5246 9.72804 56.9013 9.89755V10.6604ZM72.3777 5.06644V0.574363C71.097 0.517858 70.0799 0.800379 69.3265 1.42192C68.5731 2.04347 67.9798 2.8722 67.5466 3.90811V0.856883H63.2523V16H67.5466V10.4061C67.5466 8.57912 67.9516 7.23244 68.7615 6.36604C69.5902 5.49964 70.7203 5.06644 72.1517 5.06644H72.3777ZM88.1133 0.856883H83.6494L80.2309 10.9994L76.8407 0.856883H72.2921L78.2533 16.113H82.1521L88.1133 0.856883ZM91.4584 16.2609C90.7962 16.2609 90.2277 16.0268 89.7528 15.5586C89.2846 15.0837 89.0505 14.5152 89.0505 13.853C89.0505 13.1975 89.2846 12.6357 89.7528 12.1675C90.2277 11.6993 90.7962 11.4652 91.4584 11.4652C92.1004 11.4652 92.6623 11.6993 93.1438 12.1675C93.6254 12.6357 93.8662 13.1975 93.8662 13.853C93.8662 14.2944 93.7525 14.6991 93.5251 15.067C93.3044 15.4281 93.0134 15.7191 92.6522 15.9398C92.2911 16.1538 91.8931 16.2609 91.4584 16.2609Z" fill="#0D0D0D"/>
</svg>
