<svg id="Layer_1" data-name="Layer 1" xmlns="http://www.w3.org/2000/svg" viewBox="0 0 203.41 52.32"><defs><style>.cls-1,.cls-2{font-size:48px;}.cls-1{font-family:Gadugi-Bold, Gadugi;}.cls-1,.cls-2,.cls-3{font-weight:700;}.cls-2,.cls-3{font-family:Gotham-Bold, Gotham;}.cls-3{font-size:48.88px;}</style></defs><title>avr.studio</title><path d="M68.88,57.25a57.24,57.24,0,0,0,.33,6.42H62.64a10.7,10.7,0,0,1-.35-2.43c-.9,1.4-2.59,3-7,3-6,0-8.52-3.94-8.52-7.8,0-5.66,4.55-8.27,11.83-8.27h3.55V46.66c0-1.76-.64-3.5-3.83-3.5-2.9,0-3.54,1.23-3.86,3H47.94c.37-4.41,3.11-8,10.66-7.94,6.66,0,10.28,2.64,10.28,8.55Zm-6.71-4.89h-2.8c-4.15,0-5.68,1.26-5.68,3.66,0,1.8,1.1,3.31,3.57,3.31,4.38,0,4.91-3,4.91-6.32Z" transform="translate(-46.79 -22.6)"/><text class="cls-1" transform="translate(21.65 40.8)">v</text><path d="M95.94,39.3h6.89V63.63H95.94Zm12.54,6.07a5.06,5.06,0,0,0-1.58-.23,3.76,3.76,0,0,0-3,1.25,5.22,5.22,0,0,0-1.06,3.48l-.5-6.32A8.7,8.7,0,0,1,105,40.16,5.7,5.7,0,0,1,108.48,39a7.52,7.52,0,0,1,2.75.48,6.07,6.07,0,0,1,2.14,1.42l-3.75,5.23A2.9,2.9,0,0,0,108.48,45.37Z" transform="translate(-46.79 -22.6)"/><text class="cls-1" transform="translate(58.58 40.86)">.</text><path d="M124.29,55.92c.52,2,2.13,3.09,4.7,3.09s3.46-.91,3.46-2.41-1.06-2.22-4.62-3.1c-8.1-2-9.42-4.5-9.42-8S121,38,128.48,38s10.09,4.11,10.31,7.48h-6.54c-.23-.92-.84-2.65-4.07-2.65-2.28,0-3,1-3,2.12s.77,1.83,4.8,2.78c8.29,1.92,9.47,4.76,9.47,8.41,0,4.11-3.13,7.86-10.71,7.86s-10.66-3.64-11.2-8Z" transform="translate(-46.79 -22.6)"/><text class="cls-2" transform="translate(91.22 41.29)">t</text><text class="cls-2" transform="translate(107.34 41)">u</text><text class="cls-2" transform="translate(133.31 41.53)">d</text><text class="cls-3" transform="translate(160.99 41.95) scale(0.98 1)">i</text><text class="cls-2" transform="translate(171.54 42.29)">o</text></svg>