<svg width="137" height="23" viewBox="0 0 137 23" fill="none" xmlns="http://www.w3.org/2000/svg">
<path d="M6.09988 22.2909C5.11668 22.2909 4.24049 22.1204 3.47131 21.7793C2.70214 21.4315 2.09349 20.9198 1.64536 20.2443C1.20392 19.5621 0.983205 18.7126 0.983205 17.696C0.983205 16.8398 1.14038 16.1208 1.45474 15.5389C1.7691 14.957 2.19716 14.4889 2.73893 14.1344C3.28069 13.7799 3.89603 13.5123 4.58494 13.3317C5.28054 13.1512 6.00959 13.0241 6.77207 12.9505C7.66833 12.8569 8.39068 12.7699 8.93914 12.6897C9.48759 12.6027 9.88555 12.4756 10.133 12.3084C10.3805 12.1412 10.5042 11.8937 10.5042 11.566V11.5058C10.5042 10.8704 10.3036 10.3788 9.90227 10.031C9.50766 9.68319 8.94582 9.50929 8.21678 9.50929C7.44761 9.50929 6.83561 9.67984 6.3808 10.021C5.92598 10.3554 5.625 10.7768 5.47785 11.2851L1.52497 10.964C1.72562 10.0276 2.12024 9.21834 2.70883 8.53612C3.29741 7.8472 4.05656 7.31881 4.98625 6.95095C5.92264 6.5764 7.00617 6.38912 8.23685 6.38912C9.09297 6.38912 9.91231 6.48945 10.6949 6.6901C11.4841 6.89075 12.183 7.20177 12.7917 7.62314C13.407 8.04451 13.8919 8.58628 14.2464 9.24844C14.6009 9.90391 14.7782 10.6898 14.7782 11.6061V22H10.725V19.863H10.6046C10.3571 20.3446 10.026 20.7693 9.61133 21.1372C9.19664 21.4984 8.69835 21.7826 8.11645 21.99C7.53456 22.1906 6.86237 22.2909 6.09988 22.2909ZM7.32387 19.3413C7.95259 19.3413 8.50773 19.2176 8.9893 18.9701C9.47087 18.716 9.84877 18.3749 10.123 17.9468C10.3972 17.5187 10.5343 17.0338 10.5343 16.492V14.8567C10.4006 14.9437 10.2166 15.0239 9.98254 15.0975C9.75513 15.1644 9.49762 15.2279 9.21002 15.2881C8.92241 15.3416 8.63481 15.3918 8.34721 15.4386C8.0596 15.4787 7.79875 15.5155 7.56466 15.549C7.06302 15.6225 6.62493 15.7396 6.25037 15.9001C5.87582 16.0606 5.58487 16.278 5.37753 16.5522C5.17018 16.8198 5.06651 17.1542 5.06651 17.5555C5.06651 18.1374 5.2772 18.5822 5.69857 18.8899C6.12664 19.1908 6.6684 19.3413 7.32387 19.3413ZM31.909 6.58977L26.5214 22H21.7057L16.3182 6.58977H20.8329L24.0333 17.6157H24.1939L27.3843 6.58977H31.909ZM34.0961 22V6.58977H38.2396V9.27854H38.4002C38.6811 8.32209 39.1526 7.59973 39.8148 7.11147C40.4769 6.61653 41.2394 6.36905 42.1022 6.36905C42.3163 6.36905 42.547 6.38243 42.7945 6.40918C43.042 6.43594 43.2593 6.47272 43.4466 6.51954V10.3119C43.246 10.2517 42.9684 10.1982 42.6139 10.1514C42.2594 10.1046 41.935 10.0812 41.6407 10.0812C41.012 10.0812 40.4502 10.2183 39.9552 10.4925C39.467 10.76 39.079 11.1346 38.7914 11.6162C38.5105 12.0977 38.3701 12.6529 38.3701 13.2816V22H34.0961ZM46.3887 22.2609C45.7265 22.2609 45.158 22.0268 44.6831 21.5586C44.2149 21.0837 43.9808 20.5152 43.9808 19.853C43.9808 19.1975 44.2149 18.6357 44.6831 18.1675C45.158 17.6993 45.7265 17.4652 46.3887 17.4652C47.0308 17.4652 47.5926 17.6993 48.0742 18.1675C48.5558 18.6357 48.7965 19.1975 48.7965 19.853C48.7965 20.2944 48.6828 20.6991 48.4554 21.067C48.2347 21.4281 47.9438 21.7191 47.5826 21.9398C47.2214 22.1538 46.8234 22.2609 46.3887 22.2609ZM65.1273 10.9841L61.2145 11.2249C61.1476 10.8905 61.0038 10.5895 60.7831 10.3219C60.5624 10.0477 60.2714 9.83033 59.9103 9.66981C59.5558 9.5026 59.1311 9.41899 58.6361 9.41899C57.974 9.41899 57.4155 9.55945 56.9607 9.84037C56.5058 10.1146 56.2784 10.4825 56.2784 10.944C56.2784 11.3118 56.4256 11.6228 56.7199 11.877C57.0142 12.1312 57.5191 12.3352 58.2348 12.489L61.0239 13.0508C62.5221 13.3585 63.6391 13.8534 64.3748 14.5357C65.1106 15.2179 65.4784 16.1141 65.4784 17.2244C65.4784 18.2344 65.1808 19.1206 64.5855 19.8831C63.9969 20.6456 63.1876 21.2409 62.1576 21.6689C61.1343 22.0903 59.9537 22.301 58.616 22.301C56.5761 22.301 54.9508 21.8763 53.7402 21.0268C52.5362 20.1707 51.8306 19.0069 51.6233 17.5354L55.827 17.3147C55.954 17.9368 56.2617 18.4116 56.75 18.7394C57.2382 19.0604 57.8636 19.2209 58.6261 19.2209C59.3752 19.2209 59.9772 19.0771 60.432 18.7895C60.8935 18.4952 61.1276 18.1173 61.1343 17.6558C61.1276 17.2679 60.9637 16.9502 60.6427 16.7027C60.3216 16.4486 59.8267 16.2546 59.1578 16.1208L56.4891 15.5891C54.9842 15.2881 53.8639 14.7664 53.1282 14.024C52.3991 13.2816 52.0346 12.3352 52.0346 11.1847C52.0346 10.1949 52.3021 9.34208 52.8372 8.62641C53.379 7.91075 54.1381 7.35895 55.1146 6.97101C56.0978 6.58308 57.2483 6.38912 58.5659 6.38912C60.5122 6.38912 62.0439 6.80046 63.1609 7.62314C64.2845 8.44582 64.94 9.56614 65.1273 10.9841ZM76.3664 6.58977V9.80024H67.0862V6.58977H76.3664ZM69.193 2.89774H73.467V17.2646C73.467 17.6592 73.5271 17.9669 73.6475 18.1876C73.7679 18.4016 73.9351 18.5521 74.1492 18.639C74.3699 18.726 74.6241 18.7695 74.9117 18.7695C75.1123 18.7695 75.313 18.7527 75.5136 18.7193C75.7143 18.6792 75.8681 18.6491 75.9751 18.629L76.6473 21.8094C76.4333 21.8763 76.1323 21.9532 75.7444 22.0401C75.3564 22.1338 74.8849 22.1906 74.3298 22.2107C73.2997 22.2508 72.3968 22.1137 71.6209 21.7993C70.8518 21.485 70.2531 20.9967 69.8251 20.3346C69.397 19.6724 69.1863 18.8364 69.193 17.8264V2.89774ZM89.0327 15.4386V6.58977H93.3066V22H89.2032V19.2009H89.0427C88.6949 20.1038 88.1164 20.8295 87.3071 21.378C86.5044 21.9264 85.5246 22.2007 84.3675 22.2007C83.3375 22.2007 82.4312 21.9666 81.6486 21.4984C80.8661 21.0302 80.2541 20.3647 79.8126 19.5019C79.3779 18.639 79.1572 17.6057 79.1505 16.4018V6.58977H83.4244V15.6393C83.4311 16.5489 83.6752 17.2679 84.1568 17.7963C84.6384 18.3247 85.2838 18.5889 86.0931 18.5889C86.6081 18.5889 87.0897 18.4718 87.5378 18.2377C87.9859 17.997 88.3471 17.6425 88.6213 17.1743C88.9023 16.7061 89.0394 16.1275 89.0327 15.4386ZM102.404 22.2508C101.233 22.2508 100.173 21.9498 99.2234 21.3479C98.2803 20.7392 97.5312 19.8463 96.9761 18.6691C96.4276 17.4853 96.1534 16.0339 96.1534 14.315C96.1534 12.5492 96.4377 11.0811 97.0062 9.9106C97.5747 8.73343 98.3305 7.85389 99.2736 7.272C100.223 6.68341 101.263 6.38912 102.394 6.38912C103.257 6.38912 103.976 6.53627 104.551 6.83056C105.133 7.11816 105.601 7.47934 105.955 7.91409C106.317 8.34215 106.591 8.76352 106.778 9.17821H106.908V1.45303H111.172V22H106.959V19.532H106.778C106.577 19.96 106.293 20.3847 105.925 20.8061C105.564 21.2208 105.093 21.5652 104.511 21.8395C103.935 22.1137 103.233 22.2508 102.404 22.2508ZM103.758 18.8497C104.447 18.8497 105.029 18.6625 105.504 18.2879C105.985 17.9067 106.353 17.3749 106.607 16.6927C106.868 16.0105 106.999 15.2112 106.999 14.2949C106.999 13.3786 106.872 12.5826 106.618 11.9071C106.363 11.2316 105.995 10.7099 105.514 10.342C105.032 9.97414 104.447 9.7902 103.758 9.7902C103.056 9.7902 102.464 9.98083 101.982 10.3621C101.501 10.7433 101.136 11.2717 100.889 11.9472C100.641 12.6228 100.518 13.4053 100.518 14.2949C100.518 15.1911 100.641 15.9837 100.889 16.6726C101.143 17.3549 101.508 17.8899 101.982 18.2779C102.464 18.6591 103.056 18.8497 103.758 18.8497ZM114.686 22V6.58977H118.96V22H114.686ZM116.833 4.6033C116.198 4.6033 115.653 4.39261 115.198 3.97124C114.75 3.54318 114.526 3.03151 114.526 2.43623C114.526 1.84765 114.75 1.34267 115.198 0.921298C115.653 0.493235 116.198 0.279204 116.833 0.279204C117.469 0.279204 118.01 0.493235 118.459 0.921298C118.913 1.34267 119.141 1.84765 119.141 2.43623C119.141 3.03151 118.913 3.54318 118.459 3.97124C118.01 4.39261 117.469 4.6033 116.833 4.6033ZM129.347 22.301C127.788 22.301 126.44 21.9699 125.303 21.3077C124.173 20.6389 123.3 19.7092 122.685 18.5187C122.07 17.3214 121.762 15.9336 121.762 14.3551C121.762 12.7632 122.07 11.372 122.685 10.1815C123.3 8.98424 124.173 8.05455 125.303 7.39239C126.44 6.72354 127.788 6.38912 129.347 6.38912C130.905 6.38912 132.249 6.72354 133.38 7.39239C134.517 8.05455 135.393 8.98424 136.008 10.1815C136.624 11.372 136.931 12.7632 136.931 14.3551C136.931 15.9336 136.624 17.3214 136.008 18.5187C135.393 19.7092 134.517 20.6389 133.38 21.3077C132.249 21.9699 130.905 22.301 129.347 22.301ZM129.367 18.9902C130.076 18.9902 130.668 18.7895 131.142 18.3882C131.617 17.9802 131.975 17.4251 132.216 16.7228C132.463 16.0205 132.587 15.2212 132.587 14.325C132.587 13.4287 132.463 12.6295 132.216 11.9272C131.975 11.2249 131.617 10.6697 131.142 10.2617C130.668 9.85374 130.076 9.64975 129.367 9.64975C128.651 9.64975 128.049 9.85374 127.561 10.2617C127.079 10.6697 126.715 11.2249 126.467 11.9272C126.226 12.6295 126.106 13.4287 126.106 14.325C126.106 15.2212 126.226 16.0205 126.467 16.7228C126.715 17.4251 127.079 17.9802 127.561 18.3882C128.049 18.7895 128.651 18.9902 129.367 18.9902Z" fill="#120E0E"/>
</svg>
